<?xml version="1.0" encoding="UTF-8"?>
<svg xmlns="http://www.w3.org/2000/svg" viewBox="0 0 176 176">
  <g fill="none" fill-rule="evenodd" stroke-width="1">
    <g transform="translate(-638 -442)">
      <g transform="translate(291 253)">
        <g transform="translate(0 188)">
          <g transform="translate(347 .5)">
            <g>
              <path d="m110.22 59.275-8.2359 0.0054688c-6.4586 0-7.7109 3.068-7.7109 7.5688v9.9312h15.405l-2.007 15.559h-13.398v39.911h-16.062v-39.911h-13.431v-15.559h13.431v-11.468c0-13.316 8.132-20.562 20.005-20.562 5.6875 0 10.577 0.42109 12.004 0.6125v13.912zm-22.723-58.275c-48.322 0-87.5 39.173-87.5 87.5 0 48.322 39.178 87.5 87.5 87.5 48.327 0 87.5-39.178 87.5-87.5 0-48.327-39.173-87.5-87.5-87.5z" fill="#3B5998"></path>
            </g>
          </g>
        </g>
      </g>
    </g>
  </g>
</svg>
