<svg viewBox="0 0 175 176" version="1.1" xmlns="http://www.w3.org/2000/svg" xmlns:xlink="http://www.w3.org/1999/xlink">
  <!-- Generator: Sketch 45.2 (43514) - http://www.bohemiancoding.com/sketch -->
  <desc>Created with Sketch.</desc>
  <defs></defs>
  <g id="Take-2" stroke="none" stroke-width="1" fill="none" fill-rule="evenodd">
    <g id="Desktop-HD-Copy-4" transform="translate(-638.000000, -442.000000)" fill="#3B5998">
      <g id="Group-2" transform="translate(291.000000, 253.000000)">
        <g id="Group" transform="translate(0.000000, 189.000000)">
          <g id="Group-4" transform="translate(347.000000, 0.500000)">
            <path d="M110.222656,58.275 L101.986719,58.2804688 C95.528125,58.2804688 94.2757813,61.3484375 94.2757813,65.8492188 L94.2757813,75.7804688 L109.68125,75.7804688 L107.674219,91.3390625 L94.2757813,91.3390625 L94.2757813,131.25 L78.2140625,131.25 L78.2140625,91.3390625 L64.7828125,91.3390625 L64.7828125,75.7804688 L78.2140625,75.7804688 L78.2140625,64.3125 C78.2140625,50.9960938 86.3460938,43.75 98.21875,43.75 C103.90625,43.75 108.795312,44.1710937 110.222656,44.3625 L110.222656,58.275 Z M87.5,0 C39.178125,0 0,39.1726563 0,87.5 C0,135.821875 39.178125,175 87.5,175 C135.827344,175 175,135.821875 175,87.5 C175,39.1726563 135.827344,0 87.5,0 L87.5,0 Z" id="Fill-183"></path>
          </g>
        </g>
      </g>
    </g>
  </g>
</svg>
