<svg width="80px" height="80px" viewBox="0 0 80 80" version="1.1" xmlns="http://www.w3.org/2000/svg" xmlns:xlink="http://www.w3.org/1999/xlink">
    <!-- Generator: Sketch 44.1 (41455) - http://www.bohemiancoding.com/sketch -->
    <desc>Created with Sketch.</desc>
    <defs></defs>
    <g id="Take-2" stroke="none" stroke-width="1" fill="none" fill-rule="evenodd">
        <g id="Desktop-HD-Copy-3" transform="translate(-634.000000, -631.000000)" fill="#9B9B9B">
            <path d="M684.3875,657.64 L680.6225,657.6425 C677.67,657.6425 677.0975,659.045 677.0975,661.1025 L677.0975,665.6425 L684.14,665.6425 L683.2225,672.755 L677.0975,672.755 L677.0975,691 L669.755,691 L669.755,672.755 L663.615,672.755 L663.615,665.6425 L669.755,665.6425 L669.755,660.4 C669.755,654.3125 673.4725,651 678.9,651 C681.5,651 683.735,651.1925 684.3875,651.28 L684.3875,657.64 Z M674,631 C651.91,631 634,648.9075 634,671 C634,693.09 651.91,711 674,711 C696.0925,711 714,693.09 714,671 C714,648.9075 696.0925,631 674,631 L674,631 Z" id="Fill-183"></path>
        </g>
    </g>
</svg>
