<?xml version="1.0" encoding="UTF-8"?>
<svg xmlns="http://www.w3.org/2000/svg" viewBox="0 0 62 43">
  <g fill="none" fill-rule="evenodd">
    <g transform="translate(-1136 -851)" fill="#BF0000">
      <path d="m1160.3 880.67-0.00191-17.177 16.518 8.6183-16.516 8.5591zm33.77-26.46c-2.3251-2.4359-4.931-2.4474-6.1251-2.5888-8.5553-0.61901-21.388-0.61901-21.388-0.61901-0.02675 0-12.86 0-21.415 0.61901-1.196 0.14138-3.8 0.15284-6.127 2.5888-1.8322 1.8551-2.4283 6.0678-2.4283 6.0678s-0.61137 4.9482-0.61137 9.8946v4.6387c0 4.9482 0.61137 9.8946 0.61137 9.8946s0.59608 4.2127 2.4283 6.0678c2.327 2.4359 5.3819 2.3595 6.7422 2.6136 4.8909 0.46999 20.786 0.61519 20.786 0.61519s12.846-0.019105 21.402-0.63811c1.1941-0.14329 3.8-0.15475 6.1251-2.5907 1.8322-1.8551 2.4302-6.0678 2.4302-6.0678s0.61137-4.9463 0.61137-9.8946v-4.6387c0-4.9463-0.61137-9.8946-0.61137-9.8946s-0.59799-4.2127-2.4302-6.0678z"></path>
    </g>
  </g>
</svg>
